<?xml version="1.0" encoding="utf-8"?>
<!-- Generator: Adobe Illustrator 23.0.3, SVG Export Plug-In . SVG Version: 6.00 Build 0)  -->
<svg version="1.1" id="Layer_1" xmlns="http://www.w3.org/2000/svg" xmlns:xlink="http://www.w3.org/1999/xlink" x="0px" y="0px"
	 viewBox="0 0 64 64" style="enable-background:new 0 0 64 64;" xml:space="preserve">
<style type="text/css">
	.st0{fill:#10C379;}
	.st1{fill:#FFFFFF;}
</style>
<rect x="0" y="0" class="st0" width="64" height="64"/>
<path class="st1" d="M43.2,20.7c-3-3-7-4.6-11.2-4.6c-8.7,0-15.9,7.1-15.9,15.9c0,2.8,0.7,5.5,2.1,7.9L16,48l8.4-2.2
	c2.3,1.3,4.9,1.9,7.6,1.9h0c8.7,0,16-7.1,16-15.9C48,27.6,46.2,23.7,43.2,20.7z M32,45.1c-2.4,0-4.7-0.6-6.7-1.8l-0.5-0.3l-5,1.3
	l1.3-4.9l-0.3-0.5c-1.3-2.1-2-4.5-2-7c0-7.3,5.9-13.2,13.2-13.2c3.5,0,6.8,1.4,9.3,3.9s4,5.8,4,9.3C45.3,39.1,39.3,45.1,32,45.1z
	 M39.2,35.2c-0.4-0.2-2.3-1.2-2.7-1.3c-0.4-0.1-0.6-0.2-0.9,0.2c-0.3,0.4-1,1.3-1.3,1.6c-0.2,0.3-0.5,0.3-0.9,0.1
	c-2.3-1.2-3.9-2.1-5.4-4.7c-0.4-0.7,0.4-0.6,1.2-2.2c0.1-0.3,0.1-0.5,0-0.7C29.1,28,28.3,26,28,25.2c-0.3-0.8-0.7-0.7-0.9-0.7
	c-0.2,0-0.5,0-0.8,0c-0.3,0-0.7,0.1-1.1,0.5c-0.4,0.4-1.4,1.4-1.4,3.3s1.4,3.8,1.6,4.1c0.2,0.3,2.8,4.3,6.8,6c2.5,1.1,3.5,1.2,4.8,1
	c0.8-0.1,2.3-1,2.7-1.9c0.3-0.9,0.3-1.7,0.2-1.9C39.9,35.5,39.6,35.4,39.2,35.2z"/>
</svg>
